<mxfile host="Electron" modified="2024-04-07T16:23:14.357Z" agent="Mozilla/5.0 (Windows NT 10.0; Win64; x64) AppleWebKit/537.36 (KHTML, like Gecko) draw.io/24.1.0 Chrome/120.0.6099.109 Electron/28.1.0 Safari/537.36" etag="OTMKCi5VNPD8oUxYK_ur" version="24.1.0" type="device">
  <diagram name="Сторінка-1" id="uAzbx7v3SxuRT0PB5ymo">
    <mxGraphModel dx="3772" dy="836" grid="1" gridSize="10" guides="1" tooltips="1" connect="1" arrows="1" fold="1" page="1" pageScale="1" pageWidth="1169" pageHeight="827" math="0" shadow="0">
      <root>
        <mxCell id="0" />
        <mxCell id="1" parent="0" />
        <mxCell id="G2FGcqnGoLFNUS4eYZE6-5" value="Warehouse Objects" style="swimlane;whiteSpace=wrap;html=1;fillColor=#d5e8d4;strokeColor=#82b366;gradientColor=#97d077;" parent="1" vertex="1">
          <mxGeometry x="-1610" y="30" width="760" height="790" as="geometry" />
        </mxCell>
        <mxCell id="5cfze6ayc0-QHp2-MRqt-2" value="CarFile" style="swimlane;fontStyle=0;childLayout=stackLayout;horizontal=1;startSize=30;horizontalStack=0;resizeParent=1;resizeParentMax=0;resizeLast=0;collapsible=1;marginBottom=0;whiteSpace=wrap;html=1;fillColor=#dae8fc;strokeColor=#6c8ebf;" parent="G2FGcqnGoLFNUS4eYZE6-5" vertex="1">
          <mxGeometry x="310" y="539" width="140" height="240" as="geometry" />
        </mxCell>
        <mxCell id="5cfze6ayc0-QHp2-MRqt-7" value="Id" style="text;strokeColor=none;fillColor=none;align=left;verticalAlign=middle;spacingLeft=4;spacingRight=4;overflow=hidden;points=[[0,0.5],[1,0.5]];portConstraint=eastwest;rotatable=0;whiteSpace=wrap;html=1;" parent="5cfze6ayc0-QHp2-MRqt-2" vertex="1">
          <mxGeometry y="30" width="140" height="30" as="geometry" />
        </mxCell>
        <mxCell id="5cfze6ayc0-QHp2-MRqt-3" value="Make" style="text;strokeColor=none;fillColor=none;align=left;verticalAlign=middle;spacingLeft=4;spacingRight=4;overflow=hidden;points=[[0,0.5],[1,0.5]];portConstraint=eastwest;rotatable=0;whiteSpace=wrap;html=1;" parent="5cfze6ayc0-QHp2-MRqt-2" vertex="1">
          <mxGeometry y="60" width="140" height="30" as="geometry" />
        </mxCell>
        <mxCell id="5cfze6ayc0-QHp2-MRqt-4" value="Model" style="text;strokeColor=none;fillColor=none;align=left;verticalAlign=middle;spacingLeft=4;spacingRight=4;overflow=hidden;points=[[0,0.5],[1,0.5]];portConstraint=eastwest;rotatable=0;whiteSpace=wrap;html=1;" parent="5cfze6ayc0-QHp2-MRqt-2" vertex="1">
          <mxGeometry y="90" width="140" height="30" as="geometry" />
        </mxCell>
        <mxCell id="5cfze6ayc0-QHp2-MRqt-5" value="ModelTrim" style="text;strokeColor=none;fillColor=none;align=left;verticalAlign=middle;spacingLeft=4;spacingRight=4;overflow=hidden;points=[[0,0.5],[1,0.5]];portConstraint=eastwest;rotatable=0;whiteSpace=wrap;html=1;" parent="5cfze6ayc0-QHp2-MRqt-2" vertex="1">
          <mxGeometry y="120" width="140" height="30" as="geometry" />
        </mxCell>
        <mxCell id="5cfze6ayc0-QHp2-MRqt-6" value="Year" style="text;strokeColor=none;fillColor=none;align=left;verticalAlign=middle;spacingLeft=4;spacingRight=4;overflow=hidden;points=[[0,0.5],[1,0.5]];portConstraint=eastwest;rotatable=0;whiteSpace=wrap;html=1;" parent="5cfze6ayc0-QHp2-MRqt-2" vertex="1">
          <mxGeometry y="150" width="140" height="30" as="geometry" />
        </mxCell>
        <mxCell id="5cfze6ayc0-QHp2-MRqt-8" value="VIN" style="text;strokeColor=none;fillColor=none;align=left;verticalAlign=middle;spacingLeft=4;spacingRight=4;overflow=hidden;points=[[0,0.5],[1,0.5]];portConstraint=eastwest;rotatable=0;whiteSpace=wrap;html=1;" parent="5cfze6ayc0-QHp2-MRqt-2" vertex="1">
          <mxGeometry y="180" width="140" height="30" as="geometry" />
        </mxCell>
        <mxCell id="5cfze6ayc0-QHp2-MRqt-9" value="InventoryStatus" style="text;strokeColor=none;fillColor=none;align=left;verticalAlign=middle;spacingLeft=4;spacingRight=4;overflow=hidden;points=[[0,0.5],[1,0.5]];portConstraint=eastwest;rotatable=0;whiteSpace=wrap;html=1;" parent="5cfze6ayc0-QHp2-MRqt-2" vertex="1">
          <mxGeometry y="210" width="140" height="30" as="geometry" />
        </mxCell>
        <mxCell id="5cfze6ayc0-QHp2-MRqt-10" value="WarehouseCustomerOrder" style="swimlane;fontStyle=0;childLayout=stackLayout;horizontal=1;startSize=30;horizontalStack=0;resizeParent=1;resizeParentMax=0;resizeLast=0;collapsible=1;marginBottom=0;whiteSpace=wrap;html=1;fillColor=#e1d5e7;strokeColor=#9673a6;" parent="G2FGcqnGoLFNUS4eYZE6-5" vertex="1">
          <mxGeometry x="59.94" y="296" width="190.06" height="240" as="geometry" />
        </mxCell>
        <mxCell id="5cfze6ayc0-QHp2-MRqt-11" value="Id" style="text;strokeColor=none;fillColor=none;align=left;verticalAlign=middle;spacingLeft=4;spacingRight=4;overflow=hidden;points=[[0,0.5],[1,0.5]];portConstraint=eastwest;rotatable=0;whiteSpace=wrap;html=1;" parent="5cfze6ayc0-QHp2-MRqt-10" vertex="1">
          <mxGeometry y="30" width="190.06" height="30" as="geometry" />
        </mxCell>
        <mxCell id="5cfze6ayc0-QHp2-MRqt-12" value="CarDealershipOrderId" style="text;strokeColor=none;fillColor=none;align=left;verticalAlign=middle;spacingLeft=4;spacingRight=4;overflow=hidden;points=[[0,0.5],[1,0.5]];portConstraint=eastwest;rotatable=0;whiteSpace=wrap;html=1;" parent="5cfze6ayc0-QHp2-MRqt-10" vertex="1">
          <mxGeometry y="60" width="190.06" height="30" as="geometry" />
        </mxCell>
        <mxCell id="5cfze6ayc0-QHp2-MRqt-13" value="CustomerFirstName" style="text;strokeColor=none;fillColor=none;align=left;verticalAlign=middle;spacingLeft=4;spacingRight=4;overflow=hidden;points=[[0,0.5],[1,0.5]];portConstraint=eastwest;rotatable=0;whiteSpace=wrap;html=1;" parent="5cfze6ayc0-QHp2-MRqt-10" vertex="1">
          <mxGeometry y="90" width="190.06" height="30" as="geometry" />
        </mxCell>
        <mxCell id="5cfze6ayc0-QHp2-MRqt-14" value="CustomerLastName" style="text;strokeColor=none;fillColor=none;align=left;verticalAlign=middle;spacingLeft=4;spacingRight=4;overflow=hidden;points=[[0,0.5],[1,0.5]];portConstraint=eastwest;rotatable=0;whiteSpace=wrap;html=1;" parent="5cfze6ayc0-QHp2-MRqt-10" vertex="1">
          <mxGeometry y="120" width="190.06" height="30" as="geometry" />
        </mxCell>
        <mxCell id="5cfze6ayc0-QHp2-MRqt-15" value="ReservedCarId" style="text;strokeColor=none;fillColor=none;align=left;verticalAlign=middle;spacingLeft=4;spacingRight=4;overflow=hidden;points=[[0,0.5],[1,0.5]];portConstraint=eastwest;rotatable=0;whiteSpace=wrap;html=1;" parent="5cfze6ayc0-QHp2-MRqt-10" vertex="1">
          <mxGeometry y="150" width="190.06" height="30" as="geometry" />
        </mxCell>
        <mxCell id="5cfze6ayc0-QHp2-MRqt-16" value="DocumentStatus" style="text;strokeColor=none;fillColor=none;align=left;verticalAlign=middle;spacingLeft=4;spacingRight=4;overflow=hidden;points=[[0,0.5],[1,0.5]];portConstraint=eastwest;rotatable=0;whiteSpace=wrap;html=1;" parent="5cfze6ayc0-QHp2-MRqt-10" vertex="1">
          <mxGeometry y="180" width="190.06" height="30" as="geometry" />
        </mxCell>
        <mxCell id="PmAEvb-Gg5Iy_kZv-xvH-3" value="CreatedDate" style="text;strokeColor=none;fillColor=none;align=left;verticalAlign=middle;spacingLeft=4;spacingRight=4;overflow=hidden;points=[[0,0.5],[1,0.5]];portConstraint=eastwest;rotatable=0;whiteSpace=wrap;html=1;" parent="5cfze6ayc0-QHp2-MRqt-10" vertex="1">
          <mxGeometry y="210" width="190.06" height="30" as="geometry" />
        </mxCell>
        <mxCell id="5cfze6ayc0-QHp2-MRqt-18" value="WarehousePurchaseOrder" style="swimlane;fontStyle=0;childLayout=stackLayout;horizontal=1;startSize=30;horizontalStack=0;resizeParent=1;resizeParentMax=0;resizeLast=0;collapsible=1;marginBottom=0;whiteSpace=wrap;html=1;fillColor=#fff2cc;strokeColor=#d6b656;" parent="G2FGcqnGoLFNUS4eYZE6-5" vertex="1">
          <mxGeometry x="50" y="56" width="220" height="210" as="geometry" />
        </mxCell>
        <mxCell id="5cfze6ayc0-QHp2-MRqt-19" value="Id" style="text;strokeColor=none;fillColor=none;align=left;verticalAlign=middle;spacingLeft=4;spacingRight=4;overflow=hidden;points=[[0,0.5],[1,0.5]];portConstraint=eastwest;rotatable=0;whiteSpace=wrap;html=1;" parent="5cfze6ayc0-QHp2-MRqt-18" vertex="1">
          <mxGeometry y="30" width="220" height="30" as="geometry" />
        </mxCell>
        <mxCell id="5cfze6ayc0-QHp2-MRqt-20" value="CarDealershipOrderId" style="text;strokeColor=none;fillColor=none;align=left;verticalAlign=middle;spacingLeft=4;spacingRight=4;overflow=hidden;points=[[0,0.5],[1,0.5]];portConstraint=eastwest;rotatable=0;whiteSpace=wrap;html=1;" parent="5cfze6ayc0-QHp2-MRqt-18" vertex="1">
          <mxGeometry y="60" width="220" height="30" as="geometry" />
        </mxCell>
        <mxCell id="5cfze6ayc0-QHp2-MRqt-22" value="Car (model)" style="text;strokeColor=none;fillColor=none;align=left;verticalAlign=middle;spacingLeft=4;spacingRight=4;overflow=hidden;points=[[0,0.5],[1,0.5]];portConstraint=eastwest;rotatable=0;whiteSpace=wrap;html=1;" parent="5cfze6ayc0-QHp2-MRqt-18" vertex="1">
          <mxGeometry y="90" width="220" height="30" as="geometry" />
        </mxCell>
        <mxCell id="5cfze6ayc0-QHp2-MRqt-21" value="SupplierOrderId&amp;nbsp;" style="text;strokeColor=none;fillColor=none;align=left;verticalAlign=middle;spacingLeft=4;spacingRight=4;overflow=hidden;points=[[0,0.5],[1,0.5]];portConstraint=eastwest;rotatable=0;whiteSpace=wrap;html=1;" parent="5cfze6ayc0-QHp2-MRqt-18" vertex="1">
          <mxGeometry y="120" width="220" height="30" as="geometry" />
        </mxCell>
        <mxCell id="5cfze6ayc0-QHp2-MRqt-24" value="DocumentStatus" style="text;strokeColor=none;fillColor=none;align=left;verticalAlign=middle;spacingLeft=4;spacingRight=4;overflow=hidden;points=[[0,0.5],[1,0.5]];portConstraint=eastwest;rotatable=0;whiteSpace=wrap;html=1;" parent="5cfze6ayc0-QHp2-MRqt-18" vertex="1">
          <mxGeometry y="150" width="220" height="30" as="geometry" />
        </mxCell>
        <mxCell id="PmAEvb-Gg5Iy_kZv-xvH-4" value="CreatedDate" style="text;strokeColor=none;fillColor=none;align=left;verticalAlign=middle;spacingLeft=4;spacingRight=4;overflow=hidden;points=[[0,0.5],[1,0.5]];portConstraint=eastwest;rotatable=0;whiteSpace=wrap;html=1;" parent="5cfze6ayc0-QHp2-MRqt-18" vertex="1">
          <mxGeometry y="180" width="220" height="30" as="geometry" />
        </mxCell>
        <mxCell id="5cfze6ayc0-QHp2-MRqt-25" value="WarehouseSupplierOrder" style="swimlane;fontStyle=0;childLayout=stackLayout;horizontal=1;startSize=30;horizontalStack=0;resizeParent=1;resizeParentMax=0;resizeLast=0;collapsible=1;marginBottom=0;whiteSpace=wrap;html=1;fillColor=#ffe6cc;strokeColor=#d79b00;" parent="G2FGcqnGoLFNUS4eYZE6-5" vertex="1">
          <mxGeometry x="490" y="292" width="190.06" height="180" as="geometry" />
        </mxCell>
        <mxCell id="5cfze6ayc0-QHp2-MRqt-26" value="Id" style="text;strokeColor=none;fillColor=none;align=left;verticalAlign=middle;spacingLeft=4;spacingRight=4;overflow=hidden;points=[[0,0.5],[1,0.5]];portConstraint=eastwest;rotatable=0;whiteSpace=wrap;html=1;" parent="5cfze6ayc0-QHp2-MRqt-25" vertex="1">
          <mxGeometry y="30" width="190.06" height="30" as="geometry" />
        </mxCell>
        <mxCell id="5cfze6ayc0-QHp2-MRqt-27" value="SupplierName" style="text;strokeColor=none;fillColor=none;align=left;verticalAlign=middle;spacingLeft=4;spacingRight=4;overflow=hidden;points=[[0,0.5],[1,0.5]];portConstraint=eastwest;rotatable=0;whiteSpace=wrap;html=1;" parent="5cfze6ayc0-QHp2-MRqt-25" vertex="1">
          <mxGeometry y="60" width="190.06" height="30" as="geometry" />
        </mxCell>
        <mxCell id="5cfze6ayc0-QHp2-MRqt-29" value="CarFileId" style="text;strokeColor=none;fillColor=none;align=left;verticalAlign=middle;spacingLeft=4;spacingRight=4;overflow=hidden;points=[[0,0.5],[1,0.5]];portConstraint=eastwest;rotatable=0;whiteSpace=wrap;html=1;" parent="5cfze6ayc0-QHp2-MRqt-25" vertex="1">
          <mxGeometry y="90" width="190.06" height="30" as="geometry" />
        </mxCell>
        <mxCell id="5cfze6ayc0-QHp2-MRqt-30" value="DocumentStatus" style="text;strokeColor=none;fillColor=none;align=left;verticalAlign=middle;spacingLeft=4;spacingRight=4;overflow=hidden;points=[[0,0.5],[1,0.5]];portConstraint=eastwest;rotatable=0;whiteSpace=wrap;html=1;" parent="5cfze6ayc0-QHp2-MRqt-25" vertex="1">
          <mxGeometry y="120" width="190.06" height="30" as="geometry" />
        </mxCell>
        <mxCell id="PmAEvb-Gg5Iy_kZv-xvH-5" value="CreatedDate" style="text;strokeColor=none;fillColor=none;align=left;verticalAlign=middle;spacingLeft=4;spacingRight=4;overflow=hidden;points=[[0,0.5],[1,0.5]];portConstraint=eastwest;rotatable=0;whiteSpace=wrap;html=1;" parent="5cfze6ayc0-QHp2-MRqt-25" vertex="1">
          <mxGeometry y="150" width="190.06" height="30" as="geometry" />
        </mxCell>
        <mxCell id="5cfze6ayc0-QHp2-MRqt-33" style="edgeStyle=orthogonalEdgeStyle;rounded=0;orthogonalLoop=1;jettySize=auto;html=1;entryX=0;entryY=0.5;entryDx=0;entryDy=0;fillColor=#dae8fc;strokeColor=#6c8ebf;strokeWidth=2;endArrow=none;endFill=0;startArrow=classic;startFill=1;" parent="G2FGcqnGoLFNUS4eYZE6-5" source="5cfze6ayc0-QHp2-MRqt-15" target="5cfze6ayc0-QHp2-MRqt-7" edge="1">
          <mxGeometry relative="1" as="geometry" />
        </mxCell>
        <mxCell id="5cfze6ayc0-QHp2-MRqt-36" style="rounded=0;orthogonalLoop=1;jettySize=auto;html=1;entryX=1;entryY=0.5;entryDx=0;entryDy=0;fillColor=#ffe6cc;strokeColor=#d79b00;strokeWidth=2;exitX=1;exitY=0.5;exitDx=0;exitDy=0;edgeStyle=orthogonalEdgeStyle;" parent="G2FGcqnGoLFNUS4eYZE6-5" source="5cfze6ayc0-QHp2-MRqt-26" target="5cfze6ayc0-QHp2-MRqt-21" edge="1">
          <mxGeometry relative="1" as="geometry" />
        </mxCell>
        <mxCell id="5cfze6ayc0-QHp2-MRqt-37" style="rounded=0;orthogonalLoop=1;jettySize=auto;html=1;fillColor=#ffe6cc;strokeColor=#d79b00;dashed=1;strokeWidth=2;exitX=1;exitY=0.5;exitDx=0;exitDy=0;edgeStyle=elbowEdgeStyle;startArrow=classic;startFill=1;" parent="G2FGcqnGoLFNUS4eYZE6-5" source="5cfze6ayc0-QHp2-MRqt-30" target="5cfze6ayc0-QHp2-MRqt-24" edge="1">
          <mxGeometry relative="1" as="geometry">
            <Array as="points">
              <mxPoint x="740" y="350" />
            </Array>
          </mxGeometry>
        </mxCell>
        <mxCell id="5cfze6ayc0-QHp2-MRqt-39" style="edgeStyle=orthogonalEdgeStyle;rounded=0;orthogonalLoop=1;jettySize=auto;html=1;exitX=0;exitY=0.5;exitDx=0;exitDy=0;entryX=1;entryY=0.5;entryDx=0;entryDy=0;fillColor=#dae8fc;strokeColor=#6c8ebf;strokeWidth=2;endArrow=none;endFill=0;startArrow=classic;startFill=1;" parent="G2FGcqnGoLFNUS4eYZE6-5" source="5cfze6ayc0-QHp2-MRqt-29" target="5cfze6ayc0-QHp2-MRqt-7" edge="1">
          <mxGeometry relative="1" as="geometry" />
        </mxCell>
        <mxCell id="G2FGcqnGoLFNUS4eYZE6-120" style="rounded=0;orthogonalLoop=1;jettySize=auto;html=1;exitX=1;exitY=0.5;exitDx=0;exitDy=0;entryX=0;entryY=0.5;entryDx=0;entryDy=0;strokeWidth=2;fillColor=#f8cecc;strokeColor=#b85450;edgeStyle=orthogonalEdgeStyle;" parent="G2FGcqnGoLFNUS4eYZE6-5" edge="1">
          <mxGeometry relative="1" as="geometry">
            <Array as="points">
              <mxPoint x="-120" y="145" />
              <mxPoint x="-70" y="145" />
              <mxPoint x="-70" y="161" />
            </Array>
            <mxPoint x="-120.05999999999995" y="137" as="sourcePoint" />
            <mxPoint x="49.940000000000055" y="161" as="targetPoint" />
          </mxGeometry>
        </mxCell>
        <mxCell id="G2FGcqnGoLFNUS4eYZE6-9" value="CarDealership Objects" style="swimlane;whiteSpace=wrap;html=1;fillColor=#dae8fc;strokeColor=#6c8ebf;gradientColor=#7ea6e0;" parent="1" vertex="1">
          <mxGeometry x="-2310" y="30" width="620" height="780" as="geometry" />
        </mxCell>
        <mxCell id="G2FGcqnGoLFNUS4eYZE6-18" value="CustomerOrder" style="swimlane;fontStyle=0;childLayout=stackLayout;horizontal=1;startSize=30;horizontalStack=0;resizeParent=1;resizeParentMax=0;resizeLast=0;collapsible=1;marginBottom=0;whiteSpace=wrap;html=1;fillColor=#d5e8d4;strokeColor=#82b366;" parent="G2FGcqnGoLFNUS4eYZE6-9" vertex="1">
          <mxGeometry x="380" y="302" width="200" height="240" as="geometry" />
        </mxCell>
        <mxCell id="G2FGcqnGoLFNUS4eYZE6-19" value="Id" style="text;strokeColor=none;fillColor=none;align=left;verticalAlign=middle;spacingLeft=4;spacingRight=4;overflow=hidden;points=[[0,0.5],[1,0.5]];portConstraint=eastwest;rotatable=0;whiteSpace=wrap;html=1;" parent="G2FGcqnGoLFNUS4eYZE6-18" vertex="1">
          <mxGeometry y="30" width="200" height="30" as="geometry" />
        </mxCell>
        <mxCell id="G2FGcqnGoLFNUS4eYZE6-20" value="CustomerId" style="text;strokeColor=none;fillColor=none;align=left;verticalAlign=middle;spacingLeft=4;spacingRight=4;overflow=hidden;points=[[0,0.5],[1,0.5]];portConstraint=eastwest;rotatable=0;whiteSpace=wrap;html=1;" parent="G2FGcqnGoLFNUS4eYZE6-18" vertex="1">
          <mxGeometry y="60" width="200" height="30" as="geometry" />
        </mxCell>
        <mxCell id="G2FGcqnGoLFNUS4eYZE6-23" value="EmployeeId" style="text;strokeColor=none;fillColor=none;align=left;verticalAlign=middle;spacingLeft=4;spacingRight=4;overflow=hidden;points=[[0,0.5],[1,0.5]];portConstraint=eastwest;rotatable=0;whiteSpace=wrap;html=1;" parent="G2FGcqnGoLFNUS4eYZE6-18" vertex="1">
          <mxGeometry y="90" width="200" height="30" as="geometry" />
        </mxCell>
        <mxCell id="G2FGcqnGoLFNUS4eYZE6-22" value="ReservedCarId" style="text;strokeColor=none;fillColor=none;align=left;verticalAlign=middle;spacingLeft=4;spacingRight=4;overflow=hidden;points=[[0,0.5],[1,0.5]];portConstraint=eastwest;rotatable=0;whiteSpace=wrap;html=1;" parent="G2FGcqnGoLFNUS4eYZE6-18" vertex="1">
          <mxGeometry y="120" width="200" height="30" as="geometry" />
        </mxCell>
        <mxCell id="G2FGcqnGoLFNUS4eYZE6-21" value="Car (model)" style="text;strokeColor=none;fillColor=none;align=left;verticalAlign=middle;spacingLeft=4;spacingRight=4;overflow=hidden;points=[[0,0.5],[1,0.5]];portConstraint=eastwest;rotatable=0;whiteSpace=wrap;html=1;" parent="G2FGcqnGoLFNUS4eYZE6-18" vertex="1">
          <mxGeometry y="150" width="200" height="30" as="geometry" />
        </mxCell>
        <mxCell id="G2FGcqnGoLFNUS4eYZE6-24" value="DocumentStatus" style="text;strokeColor=none;fillColor=none;align=left;verticalAlign=middle;spacingLeft=4;spacingRight=4;overflow=hidden;points=[[0,0.5],[1,0.5]];portConstraint=eastwest;rotatable=0;whiteSpace=wrap;html=1;" parent="G2FGcqnGoLFNUS4eYZE6-18" vertex="1">
          <mxGeometry y="180" width="200" height="30" as="geometry" />
        </mxCell>
        <mxCell id="PmAEvb-Gg5Iy_kZv-xvH-2" value="CreatedDate" style="text;strokeColor=none;fillColor=none;align=left;verticalAlign=middle;spacingLeft=4;spacingRight=4;overflow=hidden;points=[[0,0.5],[1,0.5]];portConstraint=eastwest;rotatable=0;whiteSpace=wrap;html=1;" parent="G2FGcqnGoLFNUS4eYZE6-18" vertex="1">
          <mxGeometry y="210" width="200" height="30" as="geometry" />
        </mxCell>
        <mxCell id="G2FGcqnGoLFNUS4eYZE6-25" value="WarehouseOrder" style="swimlane;fontStyle=0;childLayout=stackLayout;horizontal=1;startSize=30;horizontalStack=0;resizeParent=1;resizeParentMax=0;resizeLast=0;collapsible=1;marginBottom=0;whiteSpace=wrap;html=1;fillColor=#f8cecc;strokeColor=#b85450;" parent="G2FGcqnGoLFNUS4eYZE6-9" vertex="1">
          <mxGeometry x="380" y="62" width="200" height="180" as="geometry" />
        </mxCell>
        <mxCell id="G2FGcqnGoLFNUS4eYZE6-26" value="Id" style="text;strokeColor=none;fillColor=none;align=left;verticalAlign=middle;spacingLeft=4;spacingRight=4;overflow=hidden;points=[[0,0.5],[1,0.5]];portConstraint=eastwest;rotatable=0;whiteSpace=wrap;html=1;" parent="G2FGcqnGoLFNUS4eYZE6-25" vertex="1">
          <mxGeometry y="30" width="200" height="30" as="geometry" />
        </mxCell>
        <mxCell id="G2FGcqnGoLFNUS4eYZE6-117" value="Car (model)" style="text;strokeColor=none;fillColor=none;align=left;verticalAlign=middle;spacingLeft=4;spacingRight=4;overflow=hidden;points=[[0,0.5],[1,0.5]];portConstraint=eastwest;rotatable=0;whiteSpace=wrap;html=1;" parent="G2FGcqnGoLFNUS4eYZE6-25" vertex="1">
          <mxGeometry y="60" width="200" height="30" as="geometry" />
        </mxCell>
        <mxCell id="G2FGcqnGoLFNUS4eYZE6-29" value="EmployeeId" style="text;strokeColor=none;fillColor=none;align=left;verticalAlign=middle;spacingLeft=4;spacingRight=4;overflow=hidden;points=[[0,0.5],[1,0.5]];portConstraint=eastwest;rotatable=0;whiteSpace=wrap;html=1;" parent="G2FGcqnGoLFNUS4eYZE6-25" vertex="1">
          <mxGeometry y="90" width="200" height="30" as="geometry" />
        </mxCell>
        <mxCell id="G2FGcqnGoLFNUS4eYZE6-30" value="DocumentStatus" style="text;strokeColor=none;fillColor=none;align=left;verticalAlign=middle;spacingLeft=4;spacingRight=4;overflow=hidden;points=[[0,0.5],[1,0.5]];portConstraint=eastwest;rotatable=0;whiteSpace=wrap;html=1;" parent="G2FGcqnGoLFNUS4eYZE6-25" vertex="1">
          <mxGeometry y="120" width="200" height="30" as="geometry" />
        </mxCell>
        <mxCell id="PmAEvb-Gg5Iy_kZv-xvH-1" value="CreatedDate" style="text;strokeColor=none;fillColor=none;align=left;verticalAlign=middle;spacingLeft=4;spacingRight=4;overflow=hidden;points=[[0,0.5],[1,0.5]];portConstraint=eastwest;rotatable=0;whiteSpace=wrap;html=1;" parent="G2FGcqnGoLFNUS4eYZE6-25" vertex="1">
          <mxGeometry y="150" width="200" height="30" as="geometry" />
        </mxCell>
        <mxCell id="G2FGcqnGoLFNUS4eYZE6-43" value="Customer" style="swimlane;fontStyle=0;childLayout=stackLayout;horizontal=1;startSize=30;horizontalStack=0;resizeParent=1;resizeParentMax=0;resizeLast=0;collapsible=1;marginBottom=0;whiteSpace=wrap;html=1;fillColor=#ffe6cc;strokeColor=#d79b00;" parent="G2FGcqnGoLFNUS4eYZE6-9" vertex="1">
          <mxGeometry x="30" y="302" width="200" height="150" as="geometry" />
        </mxCell>
        <mxCell id="G2FGcqnGoLFNUS4eYZE6-44" value="Id" style="text;strokeColor=none;fillColor=none;align=left;verticalAlign=middle;spacingLeft=4;spacingRight=4;overflow=hidden;points=[[0,0.5],[1,0.5]];portConstraint=eastwest;rotatable=0;whiteSpace=wrap;html=1;" parent="G2FGcqnGoLFNUS4eYZE6-43" vertex="1">
          <mxGeometry y="30" width="200" height="30" as="geometry" />
        </mxCell>
        <mxCell id="G2FGcqnGoLFNUS4eYZE6-45" value="FirstName" style="text;strokeColor=none;fillColor=none;align=left;verticalAlign=middle;spacingLeft=4;spacingRight=4;overflow=hidden;points=[[0,0.5],[1,0.5]];portConstraint=eastwest;rotatable=0;whiteSpace=wrap;html=1;" parent="G2FGcqnGoLFNUS4eYZE6-43" vertex="1">
          <mxGeometry y="60" width="200" height="30" as="geometry" />
        </mxCell>
        <mxCell id="G2FGcqnGoLFNUS4eYZE6-46" value="LastName" style="text;strokeColor=none;fillColor=none;align=left;verticalAlign=middle;spacingLeft=4;spacingRight=4;overflow=hidden;points=[[0,0.5],[1,0.5]];portConstraint=eastwest;rotatable=0;whiteSpace=wrap;html=1;" parent="G2FGcqnGoLFNUS4eYZE6-43" vertex="1">
          <mxGeometry y="90" width="200" height="30" as="geometry" />
        </mxCell>
        <mxCell id="G2FGcqnGoLFNUS4eYZE6-47" value="IsRemove" style="text;strokeColor=none;fillColor=none;align=left;verticalAlign=middle;spacingLeft=4;spacingRight=4;overflow=hidden;points=[[0,0.5],[1,0.5]];portConstraint=eastwest;rotatable=0;whiteSpace=wrap;html=1;" parent="G2FGcqnGoLFNUS4eYZE6-43" vertex="1">
          <mxGeometry y="120" width="200" height="30" as="geometry" />
        </mxCell>
        <mxCell id="G2FGcqnGoLFNUS4eYZE6-80" value="Employee" style="swimlane;fontStyle=0;childLayout=stackLayout;horizontal=1;startSize=30;horizontalStack=0;resizeParent=1;resizeParentMax=0;resizeLast=0;collapsible=1;marginBottom=0;whiteSpace=wrap;html=1;fillColor=#dae8fc;strokeColor=#6c8ebf;" parent="G2FGcqnGoLFNUS4eYZE6-9" vertex="1">
          <mxGeometry x="31" y="62" width="200" height="180" as="geometry" />
        </mxCell>
        <mxCell id="G2FGcqnGoLFNUS4eYZE6-81" value="Id" style="text;strokeColor=none;fillColor=none;align=left;verticalAlign=middle;spacingLeft=4;spacingRight=4;overflow=hidden;points=[[0,0.5],[1,0.5]];portConstraint=eastwest;rotatable=0;whiteSpace=wrap;html=1;" parent="G2FGcqnGoLFNUS4eYZE6-80" vertex="1">
          <mxGeometry y="30" width="200" height="30" as="geometry" />
        </mxCell>
        <mxCell id="G2FGcqnGoLFNUS4eYZE6-82" value="FirstName" style="text;strokeColor=none;fillColor=none;align=left;verticalAlign=middle;spacingLeft=4;spacingRight=4;overflow=hidden;points=[[0,0.5],[1,0.5]];portConstraint=eastwest;rotatable=0;whiteSpace=wrap;html=1;" parent="G2FGcqnGoLFNUS4eYZE6-80" vertex="1">
          <mxGeometry y="60" width="200" height="30" as="geometry" />
        </mxCell>
        <mxCell id="G2FGcqnGoLFNUS4eYZE6-83" value="LastName" style="text;strokeColor=none;fillColor=none;align=left;verticalAlign=middle;spacingLeft=4;spacingRight=4;overflow=hidden;points=[[0,0.5],[1,0.5]];portConstraint=eastwest;rotatable=0;whiteSpace=wrap;html=1;" parent="G2FGcqnGoLFNUS4eYZE6-80" vertex="1">
          <mxGeometry y="90" width="200" height="30" as="geometry" />
        </mxCell>
        <mxCell id="G2FGcqnGoLFNUS4eYZE6-85" value="Position" style="text;strokeColor=none;fillColor=none;align=left;verticalAlign=middle;spacingLeft=4;spacingRight=4;overflow=hidden;points=[[0,0.5],[1,0.5]];portConstraint=eastwest;rotatable=0;whiteSpace=wrap;html=1;" parent="G2FGcqnGoLFNUS4eYZE6-80" vertex="1">
          <mxGeometry y="120" width="200" height="30" as="geometry" />
        </mxCell>
        <mxCell id="G2FGcqnGoLFNUS4eYZE6-84" value="IsRemove" style="text;strokeColor=none;fillColor=none;align=left;verticalAlign=middle;spacingLeft=4;spacingRight=4;overflow=hidden;points=[[0,0.5],[1,0.5]];portConstraint=eastwest;rotatable=0;whiteSpace=wrap;html=1;" parent="G2FGcqnGoLFNUS4eYZE6-80" vertex="1">
          <mxGeometry y="150" width="200" height="30" as="geometry" />
        </mxCell>
        <mxCell id="G2FGcqnGoLFNUS4eYZE6-133" style="edgeStyle=orthogonalEdgeStyle;rounded=0;orthogonalLoop=1;jettySize=auto;html=1;exitX=1;exitY=0.5;exitDx=0;exitDy=0;entryX=0;entryY=0.5;entryDx=0;entryDy=0;fillColor=#dae8fc;strokeColor=#6c8ebf;strokeWidth=2;" parent="G2FGcqnGoLFNUS4eYZE6-9" source="G2FGcqnGoLFNUS4eYZE6-81" target="G2FGcqnGoLFNUS4eYZE6-29" edge="1">
          <mxGeometry relative="1" as="geometry" />
        </mxCell>
        <mxCell id="G2FGcqnGoLFNUS4eYZE6-134" style="edgeStyle=orthogonalEdgeStyle;rounded=0;orthogonalLoop=1;jettySize=auto;html=1;exitX=1;exitY=0.5;exitDx=0;exitDy=0;fillColor=#dae8fc;strokeColor=#6c8ebf;strokeWidth=2;" parent="G2FGcqnGoLFNUS4eYZE6-9" source="G2FGcqnGoLFNUS4eYZE6-81" target="G2FGcqnGoLFNUS4eYZE6-23" edge="1">
          <mxGeometry relative="1" as="geometry" />
        </mxCell>
        <mxCell id="G2FGcqnGoLFNUS4eYZE6-135" style="edgeStyle=orthogonalEdgeStyle;rounded=0;orthogonalLoop=1;jettySize=auto;html=1;exitX=1;exitY=0.5;exitDx=0;exitDy=0;entryX=0;entryY=0.5;entryDx=0;entryDy=0;fillColor=#ffe6cc;strokeColor=#d79b00;strokeWidth=2;" parent="G2FGcqnGoLFNUS4eYZE6-9" source="G2FGcqnGoLFNUS4eYZE6-44" target="G2FGcqnGoLFNUS4eYZE6-20" edge="1">
          <mxGeometry relative="1" as="geometry">
            <Array as="points">
              <mxPoint x="250" y="347" />
              <mxPoint x="250" y="377" />
            </Array>
          </mxGeometry>
        </mxCell>
        <mxCell id="G2FGcqnGoLFNUS4eYZE6-118" style="rounded=0;orthogonalLoop=1;jettySize=auto;html=1;exitX=1;exitY=0.5;exitDx=0;exitDy=0;entryX=0;entryY=0.5;entryDx=0;entryDy=0;fillColor=#f8cecc;strokeColor=#b85450;strokeWidth=2;edgeStyle=orthogonalEdgeStyle;" parent="1" source="G2FGcqnGoLFNUS4eYZE6-26" target="5cfze6ayc0-QHp2-MRqt-20" edge="1">
          <mxGeometry relative="1" as="geometry" />
        </mxCell>
        <mxCell id="G2FGcqnGoLFNUS4eYZE6-122" style="edgeStyle=orthogonalEdgeStyle;rounded=0;orthogonalLoop=1;jettySize=auto;html=1;entryX=0;entryY=0.5;entryDx=0;entryDy=0;strokeWidth=2;fillColor=#d5e8d4;strokeColor=#82b366;" parent="1" source="G2FGcqnGoLFNUS4eYZE6-19" target="5cfze6ayc0-QHp2-MRqt-12" edge="1">
          <mxGeometry relative="1" as="geometry">
            <Array as="points">
              <mxPoint x="-1580" y="385" />
              <mxPoint x="-1580" y="401" />
            </Array>
          </mxGeometry>
        </mxCell>
        <mxCell id="G2FGcqnGoLFNUS4eYZE6-128" style="edgeStyle=orthogonalEdgeStyle;rounded=0;orthogonalLoop=1;jettySize=auto;html=1;exitX=1;exitY=0.5;exitDx=0;exitDy=0;entryX=0;entryY=0.5;entryDx=0;entryDy=0;fillColor=#d5e8d4;strokeColor=#82b366;strokeWidth=2;dashed=1;dashPattern=12 12;startArrow=classic;startFill=1;" parent="1" source="G2FGcqnGoLFNUS4eYZE6-24" target="5cfze6ayc0-QHp2-MRqt-16" edge="1">
          <mxGeometry relative="1" as="geometry" />
        </mxCell>
        <mxCell id="G2FGcqnGoLFNUS4eYZE6-129" style="rounded=0;orthogonalLoop=1;jettySize=auto;html=1;exitX=1;exitY=0.5;exitDx=0;exitDy=0;entryX=0;entryY=0.5;entryDx=0;entryDy=0;fillColor=#d5e8d4;strokeColor=#82b366;strokeWidth=2;edgeStyle=elbowEdgeStyle;" parent="1" source="G2FGcqnGoLFNUS4eYZE6-20" target="5cfze6ayc0-QHp2-MRqt-13" edge="1">
          <mxGeometry relative="1" as="geometry" />
        </mxCell>
        <mxCell id="G2FGcqnGoLFNUS4eYZE6-130" style="rounded=0;orthogonalLoop=1;jettySize=auto;html=1;entryX=0;entryY=0.5;entryDx=0;entryDy=0;fillColor=#d5e8d4;strokeColor=#82b366;strokeWidth=2;edgeStyle=elbowEdgeStyle;" parent="1" target="5cfze6ayc0-QHp2-MRqt-14" edge="1">
          <mxGeometry relative="1" as="geometry">
            <mxPoint x="-1730" y="407" as="sourcePoint" />
          </mxGeometry>
        </mxCell>
        <mxCell id="G2FGcqnGoLFNUS4eYZE6-131" style="rounded=0;orthogonalLoop=1;jettySize=auto;html=1;fillColor=#e1d5e7;strokeColor=#9673a6;strokeWidth=2;" parent="1" source="5cfze6ayc0-QHp2-MRqt-15" target="G2FGcqnGoLFNUS4eYZE6-22" edge="1">
          <mxGeometry relative="1" as="geometry" />
        </mxCell>
        <mxCell id="G2FGcqnGoLFNUS4eYZE6-132" style="edgeStyle=orthogonalEdgeStyle;rounded=0;orthogonalLoop=1;jettySize=auto;html=1;exitX=1;exitY=0.5;exitDx=0;exitDy=0;entryX=0;entryY=0.5;entryDx=0;entryDy=0;startArrow=classic;startFill=1;dashed=1;strokeWidth=2;fillColor=#fff2cc;strokeColor=#d6b656;" parent="1" source="G2FGcqnGoLFNUS4eYZE6-30" target="5cfze6ayc0-QHp2-MRqt-24" edge="1">
          <mxGeometry relative="1" as="geometry" />
        </mxCell>
        <mxCell id="kYqb-p4fSotLhQkLz4Gx-1" style="edgeStyle=orthogonalEdgeStyle;rounded=0;orthogonalLoop=1;jettySize=auto;html=1;exitX=0;exitY=0;exitDx=0;exitDy=0;entryX=1;entryY=0.5;entryDx=0;entryDy=0;fillColor=#dae8fc;strokeColor=#6c8ebf;strokeWidth=2;" parent="1" source="5cfze6ayc0-QHp2-MRqt-2" target="G2FGcqnGoLFNUS4eYZE6-21" edge="1">
          <mxGeometry relative="1" as="geometry">
            <Array as="points">
              <mxPoint x="-1300" y="590" />
              <mxPoint x="-1650" y="590" />
              <mxPoint x="-1650" y="497" />
            </Array>
          </mxGeometry>
        </mxCell>
      </root>
    </mxGraphModel>
  </diagram>
</mxfile>
